<svg xmlns="http://www.w3.org/2000/svg" xmlns:xlink="http://www.w3.org/1999/xlink" width="512" zoomAndPan="magnify" viewBox="0 0 384 383.999986" height="512" preserveAspectRatio="xMidYMid meet" version="1.0"><rect x="-38.4" width="460.8" fill="#ffffff" y="-38.399999" height="460.799983" fill-opacity="1"/><rect x="-38.4" width="460.8" fill="#e6c3a2" y="-38.399999" height="460.799983" fill-opacity="1"/><path fill="#ede6dd" d="M 191.691406 337.207031 C 191.691406 337.207031 201.183594 352.070312 194.300781 358.503906 C 189.015625 363.445312 185.476562 365.945312 178.910156 372.382812 C 172.34375 378.816406 150.503906 383.820312 140.933594 375.664062 C 131.375 367.519531 170.179688 337.566406 170.179688 337.566406 Z M 229.757812 332.929688 C 229.757812 332.929688 220.265625 347.796875 227.148438 354.230469 C 232.433594 359.167969 235.972656 361.671875 242.539062 368.105469 C 249.105469 374.539062 270.945312 379.546875 280.515625 371.390625 C 290.074219 363.242188 251.269531 333.292969 251.269531 333.292969 Z M 229.757812 332.929688 " fill-opacity="1" fill-rule="nonzero"/><path fill="#000000" d="M 171.570312 352.238281 C 171.3125 352.238281 171.050781 352.113281 170.882812 351.886719 C 167.035156 346.453125 159.886719 347.132812 159.8125 347.140625 C 159.351562 347.191406 158.941406 346.855469 158.890625 346.394531 C 158.839844 345.933594 159.175781 345.519531 159.636719 345.46875 C 159.972656 345.4375 167.839844 344.6875 172.25 350.921875 C 172.519531 351.300781 172.425781 351.820312 172.050781 352.089844 C 171.90625 352.1875 171.738281 352.238281 171.570312 352.238281 Z M 166.128906 357.210938 C 166.503906 356.941406 166.597656 356.421875 166.328125 356.042969 C 161.917969 349.820312 154.050781 350.558594 153.714844 350.59375 C 153.253906 350.644531 152.917969 351.054688 152.96875 351.515625 C 153.019531 351.980469 153.421875 352.296875 153.890625 352.265625 C 153.96875 352.257812 161.113281 351.574219 164.960938 357.011719 C 165.128906 357.246094 165.382812 357.363281 165.648438 357.363281 C 165.816406 357.371094 165.984375 357.320312 166.128906 357.210938 Z M 160.902344 362.644531 C 161.28125 362.378906 161.371094 361.855469 161.105469 361.480469 C 156.691406 355.253906 148.828125 355.992188 148.492188 356.027344 C 148.03125 356.078125 147.695312 356.488281 147.746094 356.953125 C 147.792969 357.414062 148.199219 357.757812 148.667969 357.699219 C 148.742188 357.699219 155.886719 357.011719 159.738281 362.445312 C 159.90625 362.679688 160.15625 362.796875 160.425781 362.796875 C 160.59375 362.796875 160.761719 362.746094 160.902344 362.644531 Z M 250.574219 347.601562 C 254.40625 342.195312 261.578125 342.847656 261.644531 342.859375 C 262.097656 342.890625 262.515625 342.570312 262.566406 342.109375 C 262.617188 341.648438 262.28125 341.238281 261.820312 341.1875 C 261.484375 341.152344 253.617188 340.40625 249.207031 346.636719 C 248.9375 347.015625 249.03125 347.535156 249.40625 347.804688 C 249.550781 347.914062 249.726562 347.957031 249.894531 347.957031 C 250.152344 347.957031 250.40625 347.839844 250.574219 347.601562 Z M 256.496094 352.734375 C 260.328125 347.316406 267.496094 347.980469 267.566406 347.988281 C 268.019531 348.023438 268.4375 347.703125 268.488281 347.242188 C 268.539062 346.78125 268.203125 346.367188 267.742188 346.316406 C 267.40625 346.285156 259.539062 345.535156 255.128906 351.761719 C 254.859375 352.140625 254.953125 352.660156 255.328125 352.929688 C 255.472656 353.039062 255.648438 353.078125 255.816406 353.078125 C 256.074219 353.089844 256.328125 352.96875 256.496094 352.734375 Z M 261.71875 358.167969 C 265.550781 352.753906 272.722656 353.414062 272.789062 353.425781 C 273.242188 353.464844 273.660156 353.136719 273.710938 352.675781 C 273.761719 352.214844 273.425781 351.804688 272.964844 351.753906 C 272.628906 351.71875 264.765625 350.972656 260.351562 357.203125 C 260.085938 357.582031 260.175781 358.101562 260.554688 358.371094 C 260.703125 358.480469 260.871094 358.523438 261.039062 358.523438 C 261.300781 358.523438 261.550781 358.40625 261.71875 358.167969 Z M 226.378906 191.589844 C 227.46875 195.921875 248.199219 279.007812 250.808594 331.484375 C 250.867188 332.636719 250.3125 333.726562 249.347656 334.359375 C 246.371094 336.316406 239.25 339.792969 229.691406 336.667969 C 228.667969 336.332031 227.886719 335.507812 227.585938 334.476562 C 224.324219 323.296875 204.589844 256.378906 191.917969 229.199219 C 191.625 228.570312 190.675781 228.78125 190.683594 229.476562 C 190.886719 244.695312 191.867188 314.957031 193.074219 335.753906 C 193.160156 337.121094 192.378906 338.390625 191.121094 338.933594 C 187.101562 340.675781 177.960938 343.582031 169.414062 338.734375 C 168.578125 338.261719 168 337.441406 167.820312 336.492188 C 165.238281 322.800781 144.902344 214.28125 146.035156 195.601562 C 147.242188 175.714844 218.25 168.867188 226.269531 191.226562 C 226.320312 191.351562 226.351562 191.472656 226.378906 191.589844 Z M 226.378906 191.589844 " fill-opacity="1" fill-rule="nonzero"/><path fill="#f7b49a" d="M 157.054688 154.078125 C 157.054688 154.078125 164.8125 202.683594 149.070312 194.535156 C 133.328125 186.390625 135.835938 183.8125 137.546875 182.382812 C 139.257812 180.953125 143.257812 184.507812 143.257812 184.507812 C 140.121094 175.191406 141.117188 163.324219 141.117188 163.324219 Z M 157.054688 154.078125 " fill-opacity="1" fill-rule="nonzero"/><path fill="#f28f69" d="M 261.667969 118.625 C 261.242188 97.609375 242.398438 102.96875 242.398438 102.96875 C 225.261719 59.21875 182.550781 65.28125 182.550781 65.28125 C 150.320312 66.835938 130.191406 90.101562 130.191406 90.101562 C 130.191406 90.101562 93.574219 129.34375 98.496094 143.605469 C 103.421875 157.867188 134.894531 162.585938 134.894531 162.585938 L 138.242188 167.28125 C 139.449219 168.96875 141.757812 169.421875 143.507812 168.304688 C 144.390625 167.742188 145.296875 167.113281 146.203125 166.457031 C 146.144531 167.113281 146.082031 167.761719 146.035156 168.382812 C 144.960938 181.25 147.316406 184.246094 147.316406 184.246094 L 146.035156 195.613281 C 185.214844 212.125 226.117188 192.175781 226.328125 191.410156 C 226.546875 190.648438 222.109375 179.316406 222.109375 179.316406 C 227.089844 175.671875 225.042969 153.371094 225.042969 153.371094 C 253.097656 170.304688 262.097656 139.640625 261.667969 118.625 Z M 134.90625 130.417969 L 146.8125 125.980469 L 150.328125 133.566406 C 150.328125 133.566406 149.78125 137.269531 149.070312 142.527344 C 142.425781 134.347656 134.90625 130.417969 134.90625 130.417969 Z M 134.90625 130.417969 " fill-opacity="1" fill-rule="nonzero"/><path fill="#ede6dd" d="M 199.808594 77.453125 C 199.667969 83.640625 195.1875 95.492188 191.238281 104.800781 C 188.074219 112.242188 185.257812 118.054688 185.257812 118.054688 C 183.898438 116.777344 180.738281 112.105469 177.257812 106.605469 C 171.210938 97.054688 164.183594 84.996094 163.890625 83.808594 C 163.863281 83.675781 163.855469 83.550781 163.863281 83.414062 C 165.667969 61.148438 200.355469 54.496094 199.808594 77.453125 Z M 199.808594 77.453125 " fill-opacity="1" fill-rule="nonzero"/><path fill="#638481" d="M 191.238281 104.800781 C 188.074219 112.242188 185.257812 118.054688 185.257812 118.054688 C 183.898438 116.777344 180.738281 112.105469 177.257812 106.605469 L 179.867188 92.644531 C 179.90625 92.386719 179.875 92.125 179.757812 91.890625 L 175.453125 83.492188 C 175.21875 83.027344 175.320312 82.449219 175.707031 82.097656 L 181.695312 76.484375 C 182.105469 76.109375 182.71875 76.066406 183.167969 76.375 L 190.230469 81.265625 C 190.675781 81.574219 190.851562 82.148438 190.660156 82.660156 L 187.378906 91.242188 C 187.277344 91.488281 187.269531 91.753906 187.347656 92.007812 C 187.839844 93.636719 189.8125 100.097656 191.238281 104.800781 Z M 191.238281 104.800781 " fill-opacity="1" fill-rule="nonzero"/><path fill="#ede6dd" d="M 180.863281 61.609375 C 200.964844 54.128906 201.789062 76.90625 201.476562 84.886719 C 201.425781 86.253906 200.09375 87.21875 198.742188 86.859375 L 183.320312 82.761719 C 182.835938 82.609375 182.304688 82.632812 181.828125 82.820312 L 166.789062 88.679688 C 165.421875 89.210938 163.898438 88.34375 163.722656 86.917969 C 160.5 60.988281 176.8125 61.433594 179.855469 61.738281 C 180.210938 61.789062 180.542969 61.730469 180.863281 61.609375 Z M 180.863281 61.609375 " fill-opacity="1" fill-rule="nonzero"/><path fill="#f7b49a" d="M 192.085938 55.570312 C 192.035156 55.613281 191.992188 55.648438 191.941406 55.679688 C 192.136719 56.074219 192.304688 56.503906 192.421875 56.941406 L 194.289062 63.863281 C 194.960938 66.332031 194.207031 68.96875 192.335938 70.714844 L 183.179688 79.265625 L 172.980469 73.34375 C 170.648438 71.992188 169.316406 69.398438 169.574219 66.710938 L 170.320312 58.957031 C 170.347656 58.714844 170.386719 58.46875 170.4375 58.226562 C 170.414062 58.21875 170.386719 58.210938 170.355469 58.191406 C 170.027344 58.058594 169.710938 57.921875 169.390625 57.78125 C 162.875 54.910156 158.371094 47.871094 157.589844 39.914062 C 156.332031 27.214844 165.726562 15.515625 176.996094 14.398438 C 188.269531 13.28125 199.480469 22.605469 200.730469 35.304688 C 201.359375 41.65625 199.992188 48.199219 195.832031 52.1875 C 194.550781 53.4375 193.316406 54.574219 192.085938 55.570312 Z M 192.085938 55.570312 " fill-opacity="1" fill-rule="nonzero"/><path fill="#000000" d="M 160.667969 29.558594 L 158.957031 41.636719 C 158.957031 41.636719 146.820312 37.992188 153.246094 20.910156 C 159.671875 3.824219 167.378906 8.117188 167.378906 8.117188 C 170.949219 0.179688 177.367188 1.320312 195.289062 8.257812 C 213.210938 15.195312 202.507812 38.445312 198.71875 40.511719 C 194.929688 42.578125 193.71875 22.554688 193.71875 22.554688 C 176.519531 22.335938 173.59375 16.84375 173.59375 16.84375 C 174.09375 20.203125 181.519531 27.066406 177.089844 26.5625 C 172.660156 26.058594 168.308594 16.691406 168.308594 16.691406 C 166.679688 22.699219 160.667969 29.558594 160.667969 29.558594 Z M 181.550781 60.402344 C 177.703125 60.78125 173.828125 59.636719 170.363281 58.199219 C 172.25 62.039062 176.199219 64.675781 180.761719 64.675781 C 186.304688 64.675781 190.945312 60.769531 192.085938 55.570312 C 188.832031 58.242188 185.636719 59.988281 181.550781 60.402344 Z M 187.683594 30.273438 C 186.03125 30.273438 184.6875 31.617188 184.6875 33.273438 C 184.6875 34.925781 186.03125 36.269531 187.683594 36.269531 C 189.335938 36.269531 190.675781 34.925781 190.675781 33.273438 C 190.683594 31.617188 189.34375 30.273438 187.683594 30.273438 Z M 168.960938 33.808594 C 167.3125 33.808594 165.96875 35.152344 165.96875 36.808594 C 165.96875 38.460938 167.3125 39.808594 168.960938 39.808594 C 170.613281 39.808594 171.957031 38.460938 171.957031 36.808594 C 171.957031 35.152344 170.625 33.808594 168.960938 33.808594 Z M 168.960938 33.808594 " fill-opacity="1" fill-rule="nonzero"/><path fill="#f7b49a" d="M 206.820312 41.519531 C 205.519531 45.796875 201.722656 48.433594 198.324219 47.398438 C 194.929688 46.367188 193.226562 42.066406 194.523438 37.78125 C 195.824219 33.507812 199.625 30.871094 203.019531 31.902344 C 206.417969 32.9375 208.121094 37.246094 206.820312 41.519531 Z M 154.210938 50.953125 C 156.683594 54.671875 161.078125 56.101562 164.03125 54.136719 C 166.984375 52.171875 167.378906 47.558594 164.910156 43.828125 C 162.4375 40.109375 158.042969 38.679688 155.089844 40.648438 C 152.140625 42.613281 151.746094 47.230469 154.210938 50.953125 Z M 154.210938 50.953125 " fill-opacity="1" fill-rule="nonzero"/><path fill="#000000" d="M 190.683594 25.316406 C 190.507812 25.316406 190.332031 25.269531 190.1875 25.148438 C 185.601562 21.75 180.980469 24.261719 180.789062 24.367188 C 180.386719 24.597656 179.875 24.453125 179.648438 24.050781 C 179.421875 23.648438 179.5625 23.132812 179.964844 22.90625 C 180.199219 22.773438 185.710938 19.742188 191.1875 23.804688 C 191.554688 24.082031 191.640625 24.613281 191.363281 24.980469 C 191.195312 25.207031 190.9375 25.316406 190.683594 25.316406 Z M 163.25 31.105469 C 164.878906 26.335938 170.121094 26.316406 170.363281 26.308594 C 170.800781 26.316406 171.203125 25.941406 171.210938 25.476562 C 171.21875 25.015625 170.839844 24.628906 170.378906 24.628906 C 170.328125 24.628906 163.6875 24.621094 161.667969 30.558594 C 161.515625 30.996094 161.75 31.476562 162.1875 31.625 C 162.277344 31.660156 162.371094 31.667969 162.453125 31.667969 C 162.796875 31.667969 163.125 31.449219 163.25 31.105469 Z M 199.011719 36.902344 C 199.859375 35.429688 200.757812 34.675781 201.679688 34.648438 C 203.121094 34.625 204.277344 36.378906 204.289062 36.398438 C 204.414062 36.589844 204.671875 36.648438 204.867188 36.523438 C 205.058594 36.398438 205.117188 36.136719 204.992188 35.941406 C 204.933594 35.851562 203.558594 33.785156 201.664062 33.808594 C 200.421875 33.835938 199.289062 34.742188 198.28125 36.480469 C 198.164062 36.683594 198.242188 36.941406 198.433594 37.050781 C 198.5 37.085938 198.566406 37.109375 198.644531 37.109375 C 198.792969 37.109375 198.9375 37.035156 199.011719 36.902344 Z M 154.050781 46.082031 C 153.992188 46.082031 153.933594 46.074219 153.875 46.046875 C 153.664062 45.953125 153.574219 45.703125 153.664062 45.492188 C 153.707031 45.402344 154.746094 43.132812 156.652344 42.898438 C 157.875 42.746094 159.132812 43.46875 160.382812 45.046875 C 160.527344 45.234375 160.492188 45.492188 160.316406 45.636719 C 160.132812 45.777344 159.871094 45.746094 159.730469 45.570312 C 158.679688 44.234375 157.683594 43.621094 156.761719 43.730469 C 155.324219 43.90625 154.4375 45.8125 154.429688 45.835938 C 154.363281 45.988281 154.210938 46.082031 154.050781 46.082031 Z M 176.945312 49.464844 C 175.65625 49.464844 174.261719 49.296875 172.769531 48.902344 C 172.542969 48.84375 172.410156 48.609375 172.476562 48.390625 C 172.535156 48.164062 172.769531 48.039062 172.988281 48.097656 C 181.476562 50.363281 186.726562 44.703125 186.777344 44.644531 C 186.925781 44.476562 187.195312 44.460938 187.371094 44.609375 C 187.539062 44.769531 187.554688 45.03125 187.40625 45.207031 C 187.347656 45.257812 183.453125 49.464844 176.945312 49.464844 Z M 176.367188 42.703125 C 176.160156 42.703125 175.980469 42.554688 175.949219 42.34375 C 175.714844 40.621094 176.015625 39.429688 176.855469 38.796875 C 178.222656 37.765625 180.4375 38.714844 180.527344 38.757812 C 180.738281 38.847656 180.839844 39.101562 180.746094 39.3125 C 180.652344 39.519531 180.410156 39.621094 180.191406 39.53125 C 179.679688 39.304688 178.171875 38.859375 177.359375 39.472656 C 176.777344 39.90625 176.585938 40.839844 176.777344 42.234375 C 176.8125 42.460938 176.652344 42.679688 176.417969 42.703125 C 176.410156 42.695312 176.394531 42.703125 176.367188 42.703125 Z M 176.367188 42.703125 " fill-opacity="1" fill-rule="nonzero"/><path fill="#ede6dd" d="M 258.726562 115.800781 C 256.722656 118.632812 251.570312 118.429688 247.226562 115.339844 C 242.882812 112.25 240.988281 107.453125 243 104.625 C 245.003906 101.792969 250.152344 101.996094 254.5 105.085938 C 258.84375 108.167969 260.738281 112.964844 258.726562 115.800781 Z M 258.726562 115.800781 " fill-opacity="1" fill-rule="nonzero"/><path fill="#f7b49a" d="M 257.484375 98.945312 C 257.46875 99.265625 257.417969 99.59375 257.359375 99.902344 L 256.167969 111.542969 C 256.167969 111.542969 250.421875 116.332031 245.515625 108.183594 L 245.515625 104.1875 C 244.417969 103.523438 243.585938 102.714844 243.253906 101.996094 C 241.960938 99.238281 244.570312 98.039062 244.570312 98.039062 C 244.570312 98.039062 242.085938 97.886719 240.960938 95.433594 C 239.839844 92.980469 242.867188 91.738281 242.867188 91.738281 C 242.867188 91.738281 240.164062 91.328125 239.460938 89.3125 C 238.765625 87.296875 241.054688 85.648438 241.054688 85.648438 C 241.054688 85.648438 238.445312 86.867188 238 83.207031 C 237.707031 80.769531 239.605469 78.359375 243.746094 77.746094 C 241.828125 72.429688 242.363281 66.40625 246.203125 66.214844 C 249.339844 66.054688 250.3125 73.757812 250.617188 78.15625 C 250.960938 78.234375 251.292969 78.300781 251.65625 78.390625 C 257.894531 79.972656 257.785156 93.445312 257.484375 98.945312 Z M 257.484375 98.945312 " fill-opacity="1" fill-rule="nonzero"/><path fill="#000000" d="M 143.046875 168.472656 C 143.171875 168.667969 143.113281 168.925781 142.921875 169.054688 C 142.855469 169.09375 142.769531 169.121094 142.695312 169.121094 C 142.554688 169.121094 142.417969 169.054688 142.34375 168.925781 L 138.335938 162.601562 C 138.207031 162.410156 138.265625 162.148438 138.460938 162.023438 C 138.652344 161.898438 138.914062 161.957031 139.039062 162.148438 Z M 184.023438 186.675781 C 162.882812 187.457031 149.328125 184.304688 147.617188 183.886719 C 143.675781 175.527344 149.421875 142.921875 149.480469 142.597656 C 149.523438 142.371094 149.371094 142.152344 149.144531 142.109375 C 148.910156 142.066406 148.699219 142.21875 148.660156 142.445312 C 148.515625 143.242188 146.546875 154.429688 145.738281 165.316406 L 142.476562 159.585938 C 142.359375 159.386719 142.109375 159.320312 141.90625 159.429688 C 141.707031 159.539062 141.640625 159.796875 141.746094 160 L 145.632812 166.820312 C 145.167969 174.085938 145.289062 180.980469 146.898438 184.296875 L 145.621094 195.554688 C 145.597656 195.78125 145.765625 195.988281 145.992188 196.015625 C 146.007812 196.015625 146.023438 196.015625 146.042969 196.015625 C 146.25 196.015625 146.4375 195.855469 146.460938 195.644531 L 147.695312 184.75 C 150 185.296875 160.753906 187.625 177.339844 187.625 C 179.488281 187.625 181.726562 187.582031 184.058594 187.496094 C 184.292969 187.488281 184.46875 187.296875 184.460938 187.0625 C 184.453125 186.851562 184.261719 186.65625 184.023438 186.675781 Z M 182.179688 123.09375 C 158.589844 91.816406 154.503906 73.351562 154.460938 73.167969 C 154.410156 72.941406 154.195312 72.796875 153.96875 72.839844 C 153.742188 72.890625 153.597656 73.109375 153.640625 73.335938 C 153.683594 73.519531 157.785156 92.101562 181.433594 123.488281 L 185.234375 202.15625 C 185.242188 202.382812 185.425781 202.558594 185.652344 202.558594 C 185.660156 202.558594 185.667969 202.558594 185.667969 202.558594 C 185.902344 202.550781 186.078125 202.347656 186.070312 202.121094 L 182.265625 123.328125 C 182.253906 123.234375 182.230469 123.160156 182.179688 123.09375 Z M 135.128906 130.074219 C 134.894531 129.914062 129.300781 126.328125 121.453125 132.011719 C 121.269531 132.148438 121.226562 132.40625 121.359375 132.601562 C 121.445312 132.71875 121.570312 132.777344 121.703125 132.777344 C 121.789062 132.777344 121.871094 132.753906 121.945312 132.703125 C 129.308594 127.375 134.460938 130.644531 134.679688 130.777344 C 134.871094 130.90625 135.128906 130.855469 135.257812 130.660156 C 135.382812 130.46875 135.324219 130.199219 135.128906 130.074219 Z M 165.28125 89.269531 C 165.324219 89.269531 165.375 89.261719 165.414062 89.246094 L 183.347656 83.207031 L 198.644531 87.269531 C 198.871094 87.328125 199.097656 87.195312 199.15625 86.96875 C 199.214844 86.742188 199.078125 86.515625 198.851562 86.457031 L 183.429688 82.355469 C 183.355469 82.339844 183.269531 82.339844 183.1875 82.367188 L 165.136719 88.445312 C 164.921875 88.523438 164.804688 88.757812 164.878906 88.976562 C 164.945312 89.160156 165.105469 89.269531 165.28125 89.269531 Z M 146.929688 127.242188 C 147.007812 127.394531 147.148438 127.476562 147.308594 127.476562 C 147.367188 127.476562 147.433594 127.460938 147.492188 127.433594 C 147.703125 127.335938 147.785156 127.082031 147.6875 126.871094 L 141.496094 114.148438 C 141.394531 113.9375 141.144531 113.855469 140.933594 113.953125 C 140.726562 114.054688 140.640625 114.308594 140.742188 114.515625 Z M 241.0625 86.078125 C 241.121094 86.078125 241.179688 86.070312 241.238281 86.042969 C 241.28125 86.027344 245.28125 84.246094 249.902344 85.171875 C 250.128906 85.222656 250.347656 85.070312 250.398438 84.84375 C 250.4375 84.617188 250.296875 84.398438 250.070312 84.347656 C 245.171875 83.375 241.0625 85.203125 240.894531 85.28125 C 240.6875 85.371094 240.59375 85.625 240.6875 85.835938 C 240.746094 85.984375 240.894531 86.078125 241.0625 86.078125 Z M 243.746094 78.117188 C 243.796875 78.117188 248.511719 77.9375 250.5 78.550781 C 250.539062 78.570312 250.582031 78.570312 250.625 78.570312 C 250.800781 78.570312 250.96875 78.453125 251.027344 78.273438 C 251.09375 78.054688 250.96875 77.820312 250.75 77.746094 C 248.628906 77.089844 243.921875 77.257812 243.722656 77.265625 C 243.488281 77.277344 243.3125 77.46875 243.320312 77.703125 C 243.320312 77.9375 243.496094 78.132812 243.746094 78.117188 Z M 187.3125 91.210938 C 187.128906 91.175781 182.699219 90.394531 179.757812 91.875 C 179.546875 91.972656 179.460938 92.226562 179.570312 92.4375 C 179.648438 92.585938 179.789062 92.671875 179.949219 92.671875 C 180.015625 92.671875 180.074219 92.65625 180.132812 92.628906 C 182.824219 91.277344 187.121094 92.03125 187.171875 92.042969 C 187.398438 92.082031 187.613281 91.933594 187.65625 91.707031 C 187.691406 91.46875 187.539062 91.25 187.3125 91.210938 Z M 242.707031 91.359375 C 242.496094 91.453125 242.386719 91.695312 242.480469 91.90625 C 242.546875 92.066406 242.707031 92.167969 242.867188 92.167969 C 242.917969 92.167969 242.976562 92.160156 243.027344 92.132812 C 243.066406 92.117188 247.46875 90.3125 250.648438 91.746094 C 250.859375 91.839844 251.109375 91.746094 251.203125 91.539062 C 251.292969 91.328125 251.203125 91.074219 250.992188 90.984375 C 247.488281 89.394531 242.898438 91.277344 242.707031 91.359375 Z M 247.6875 115.800781 C 247.453125 115.769531 247.242188 115.921875 247.210938 116.148438 L 246.304688 121.839844 C 246.269531 122.070312 246.421875 122.285156 246.65625 122.320312 C 246.683594 122.320312 246.699219 122.328125 246.722656 122.328125 C 246.925781 122.328125 247.101562 122.175781 247.136719 121.976562 L 248.039062 116.28125 C 248.074219 116.054688 247.921875 115.835938 247.6875 115.800781 Z M 251.480469 117.632812 C 251.253906 117.617188 251.042969 117.777344 251.019531 118.011719 L 250.464844 123.589844 C 250.4375 123.816406 250.605469 124.023438 250.84375 124.050781 C 250.859375 124.050781 250.867188 124.050781 250.882812 124.050781 C 251.09375 124.050781 251.277344 123.890625 251.304688 123.671875 L 251.855469 118.09375 C 251.882812 117.859375 251.714844 117.660156 251.480469 117.632812 Z M 253.089844 104.128906 C 253.039062 104.136719 247.722656 105.175781 245.75 103.84375 C 245.625 103.757812 245.472656 103.75 245.339844 103.808594 C 245.207031 103.867188 245.113281 104 245.097656 104.144531 L 244.753906 107.210938 C 244.726562 107.4375 244.894531 107.648438 245.121094 107.671875 C 245.140625 107.671875 245.15625 107.671875 245.171875 107.671875 C 245.382812 107.671875 245.566406 107.511719 245.59375 107.300781 L 245.859375 104.851562 C 248.359375 105.910156 253.03125 104.992188 253.25 104.949219 C 253.476562 104.910156 253.625 104.683594 253.574219 104.457031 C 253.542969 104.238281 253.324219 104.085938 253.089844 104.128906 Z M 255.714844 117.214844 C 255.480469 117.214844 255.296875 117.398438 255.296875 117.632812 L 255.296875 123.621094 C 255.296875 123.855469 255.480469 124.042969 255.714844 124.042969 C 255.949219 124.042969 256.132812 123.855469 256.132812 123.621094 L 256.132812 117.632812 C 256.132812 117.40625 255.949219 117.214844 255.714844 117.214844 Z M 259.136719 115.71875 C 259.09375 115.492188 258.867188 115.339844 258.648438 115.382812 C 258.421875 115.425781 258.273438 115.644531 258.316406 115.871094 L 259.472656 121.984375 C 259.503906 122.1875 259.679688 122.328125 259.882812 122.328125 C 259.90625 122.328125 259.933594 122.328125 259.957031 122.320312 C 260.183594 122.277344 260.335938 122.058594 260.292969 121.832031 Z M 221.933594 178.9375 C 221.800781 179.007812 208.566406 185.40625 192.304688 186.683594 C 192.226562 186.691406 192.160156 186.71875 192.101562 186.757812 L 189.375 122.605469 C 206.601562 95.828125 207.632812 68.390625 207.640625 68.113281 C 207.652344 67.875 207.464844 67.683594 207.238281 67.675781 C 207.230469 67.675781 207.230469 67.675781 207.222656 67.675781 C 206.996094 67.675781 206.8125 67.851562 206.804688 68.078125 C 206.796875 68.347656 205.773438 95.636719 188.597656 122.253906 C 188.546875 122.328125 188.527344 122.414062 188.527344 122.496094 L 191.910156 202.144531 C 191.917969 202.371094 192.101562 202.550781 192.328125 202.550781 C 192.335938 202.550781 192.335938 202.550781 192.34375 202.550781 C 192.578125 202.539062 192.753906 202.339844 192.746094 202.113281 L 192.125 187.449219 C 192.183594 187.480469 192.253906 187.507812 192.328125 187.507812 C 192.335938 187.507812 192.351562 187.507812 192.363281 187.507812 C 208.78125 186.222656 222.160156 179.746094 222.292969 179.679688 C 222.503906 179.578125 222.585938 179.324219 222.488281 179.117188 C 222.386719 178.921875 222.132812 178.828125 221.933594 178.9375 Z M 242.765625 103.171875 C 242.875 102.96875 242.800781 102.707031 242.597656 102.597656 C 242.398438 102.488281 242.136719 102.566406 242.027344 102.765625 C 241.910156 102.984375 230.066406 125.191406 231.34375 145.527344 C 231.359375 145.753906 231.542969 145.921875 231.761719 145.921875 C 231.769531 145.921875 231.777344 145.921875 231.789062 145.921875 C 232.023438 145.90625 232.199219 145.710938 232.179688 145.476562 C 230.914062 125.394531 242.648438 103.386719 242.765625 103.171875 Z M 225.773438 126.636719 C 225.773438 126.636719 225.765625 126.636719 225.765625 126.636719 C 225.539062 126.636719 225.355469 126.8125 225.347656 127.050781 L 224.632812 153.355469 C 224.625 153.589844 224.808594 153.785156 225.042969 153.785156 C 225.042969 153.785156 225.054688 153.785156 225.054688 153.785156 C 225.28125 153.785156 225.464844 153.605469 225.472656 153.371094 L 226.183594 127.066406 C 226.183594 126.839844 226.007812 126.644531 225.773438 126.636719 Z M 243.8125 112.535156 C 243.585938 112.492188 243.359375 112.636719 243.320312 112.863281 L 241.976562 119.398438 C 241.933594 119.625 242.078125 119.851562 242.304688 119.894531 C 242.328125 119.902344 242.363281 119.902344 242.386719 119.902344 C 242.582031 119.902344 242.757812 119.765625 242.800781 119.566406 L 244.140625 113.03125 C 244.191406 112.804688 244.039062 112.578125 243.8125 112.535156 Z M 250.53125 98.476562 C 250.582031 98.492188 250.625 98.5 250.675781 98.5 C 250.851562 98.5 251.007812 98.390625 251.070312 98.222656 C 251.144531 98.003906 251.035156 97.761719 250.816406 97.683594 C 248.601562 96.894531 244.667969 97.609375 244.5 97.636719 C 244.273438 97.675781 244.125 97.894531 244.167969 98.121094 C 244.207031 98.347656 244.425781 98.507812 244.652344 98.457031 C 244.6875 98.457031 248.535156 97.761719 250.53125 98.476562 Z M 250.53125 98.476562 " fill-opacity="1" fill-rule="nonzero"/><path fill="#000000" d="M 186.757812 152.3125 C 185.390625 152.371094 184.328125 153.53125 184.386719 154.902344 C 184.410156 155.5625 184.695312 156.175781 185.191406 156.621094 C 185.652344 157.042969 186.246094 157.277344 186.867188 157.277344 C 186.902344 157.277344 186.945312 157.277344 186.976562 157.277344 C 188.34375 157.21875 189.410156 156.058594 189.351562 154.691406 C 189.324219 154.027344 189.039062 153.414062 188.546875 152.96875 C 188.058594 152.515625 187.429688 152.289062 186.757812 152.3125 Z M 186.933594 156.445312 C 186.5 156.464844 186.078125 156.3125 185.753906 156.019531 C 185.425781 155.722656 185.242188 155.3125 185.222656 154.875 C 185.183594 153.96875 185.886719 153.203125 186.792969 153.164062 C 186.816406 153.164062 186.84375 153.164062 186.867188 153.164062 C 187.277344 153.164062 187.671875 153.3125 187.976562 153.597656 C 188.300781 153.894531 188.488281 154.304688 188.503906 154.742188 C 188.546875 155.632812 187.839844 156.402344 186.933594 156.445312 Z M 185.851562 131.132812 C 184.488281 131.191406 183.421875 132.347656 183.480469 133.71875 C 183.503906 134.382812 183.789062 134.996094 184.285156 135.441406 C 184.746094 135.859375 185.332031 136.09375 185.960938 136.09375 C 185.996094 136.09375 186.039062 136.09375 186.070312 136.09375 C 187.4375 136.035156 188.503906 134.878906 188.445312 133.507812 C 188.417969 132.84375 188.132812 132.230469 187.640625 131.785156 C 187.152344 131.332031 186.515625 131.097656 185.851562 131.132812 Z M 186.03125 135.253906 C 185.59375 135.273438 185.175781 135.121094 184.847656 134.828125 C 184.519531 134.53125 184.335938 134.121094 184.320312 133.683594 C 184.277344 132.777344 184.980469 132.011719 185.886719 131.972656 C 185.914062 131.972656 185.9375 131.972656 185.960938 131.972656 C 186.375 131.972656 186.769531 132.121094 187.070312 132.40625 C 187.398438 132.703125 187.582031 133.113281 187.597656 133.550781 C 187.640625 134.449219 186.933594 135.222656 186.03125 135.253906 Z M 186.304688 141.722656 C 185.644531 141.746094 185.03125 142.035156 184.585938 142.527344 C 184.144531 143.015625 183.90625 143.652344 183.933594 144.316406 C 183.957031 144.980469 184.242188 145.59375 184.738281 146.039062 C 185.199219 146.46875 185.792969 146.695312 186.414062 146.695312 C 186.449219 146.695312 186.492188 146.695312 186.523438 146.695312 C 187.1875 146.667969 187.800781 146.382812 188.242188 145.886719 C 188.6875 145.402344 188.921875 144.761719 188.898438 144.097656 C 188.871094 143.4375 188.585938 142.824219 188.09375 142.378906 C 187.605469 141.925781 186.976562 141.695312 186.304688 141.722656 Z M 187.625 145.316406 C 187.328125 145.644531 186.917969 145.828125 186.484375 145.847656 C 186.046875 145.863281 185.628906 145.710938 185.300781 145.417969 C 184.972656 145.125 184.789062 144.710938 184.773438 144.277344 C 184.753906 143.839844 184.90625 143.417969 185.199219 143.089844 C 185.492188 142.765625 185.902344 142.578125 186.339844 142.5625 C 186.363281 142.5625 186.390625 142.5625 186.414062 142.5625 C 186.828125 142.5625 187.21875 142.714844 187.523438 143 C 187.847656 143.292969 188.035156 143.703125 188.050781 144.140625 C 188.074219 144.578125 187.925781 145 187.625 145.316406 Z M 187.210938 162.90625 C 185.84375 162.964844 184.78125 164.125 184.839844 165.492188 C 184.863281 166.15625 185.148438 166.769531 185.644531 167.214844 C 186.105469 167.640625 186.699219 167.867188 187.320312 167.867188 C 187.355469 167.867188 187.398438 167.867188 187.429688 167.867188 C 188.09375 167.84375 188.703125 167.558594 189.148438 167.0625 C 189.59375 166.574219 189.828125 165.9375 189.804688 165.273438 C 189.777344 164.609375 189.492188 163.996094 189 163.550781 C 188.511719 163.105469 187.882812 162.871094 187.210938 162.90625 Z M 188.527344 166.5 C 188.234375 166.828125 187.824219 167.011719 187.386719 167.027344 C 186.945312 167.046875 186.53125 166.894531 186.207031 166.601562 C 185.878906 166.308594 185.695312 165.894531 185.675781 165.457031 C 185.636719 164.550781 186.339844 163.789062 187.246094 163.746094 C 187.269531 163.746094 187.296875 163.746094 187.320312 163.746094 C 187.730469 163.746094 188.125 163.894531 188.429688 164.183594 C 188.753906 164.476562 188.941406 164.886719 188.957031 165.324219 C 188.980469 165.761719 188.832031 166.179688 188.527344 166.5 Z M 185.300781 176.09375 C 185.324219 176.753906 185.609375 177.367188 186.105469 177.8125 C 186.566406 178.242188 187.160156 178.46875 187.78125 178.46875 C 187.816406 178.46875 187.859375 178.46875 187.890625 178.46875 C 188.554688 178.445312 189.167969 178.15625 189.609375 177.664062 C 190.054688 177.175781 190.289062 176.535156 190.265625 175.875 C 190.238281 175.210938 189.953125 174.597656 189.460938 174.152344 C 188.972656 173.699219 188.34375 173.464844 187.671875 173.496094 C 186.296875 173.554688 185.242188 174.722656 185.300781 176.09375 Z M 187.773438 174.335938 C 188.183594 174.335938 188.578125 174.488281 188.882812 174.773438 C 189.207031 175.066406 189.394531 175.480469 189.410156 175.914062 C 189.425781 176.351562 189.273438 176.773438 188.980469 177.101562 C 188.6875 177.425781 188.277344 177.613281 187.839844 177.628906 C 187.40625 177.636719 186.984375 177.496094 186.660156 177.199219 C 186.332031 176.90625 186.148438 176.496094 186.128906 176.058594 C 186.089844 175.152344 186.792969 174.378906 187.699219 174.34375 C 187.730469 174.335938 187.75 174.335938 187.773438 174.335938 Z M 188.125 184.097656 C 186.757812 184.15625 185.695312 185.3125 185.753906 186.683594 C 185.777344 187.347656 186.0625 187.960938 186.558594 188.40625 C 187.019531 188.832031 187.613281 189.058594 188.234375 189.058594 C 188.269531 189.058594 188.3125 189.058594 188.34375 189.058594 C 189.710938 189 190.777344 187.84375 190.71875 186.472656 C 190.652344 185.097656 189.484375 184.019531 188.125 184.097656 Z M 188.300781 188.21875 C 187.867188 188.230469 187.445312 188.085938 187.121094 187.792969 C 186.792969 187.496094 186.609375 187.085938 186.589844 186.648438 C 186.550781 185.742188 187.253906 184.976562 188.160156 184.9375 C 188.183594 184.9375 188.210938 184.9375 188.226562 184.9375 C 189.097656 184.9375 189.828125 185.625 189.871094 186.507812 C 189.914062 187.414062 189.199219 188.179688 188.300781 188.21875 Z M 188.300781 188.21875 " fill-opacity="1" fill-rule="nonzero"/><path fill="#ede6dd" d="M 191.917969 229.621094 C 191.867188 229.621094 191.816406 229.613281 191.765625 229.59375 L 174.507812 222.949219 C 174.289062 222.867188 174.179688 222.625 174.261719 222.40625 C 174.347656 222.1875 174.589844 222.078125 174.808594 222.160156 L 192.066406 228.804688 C 192.285156 228.890625 192.394531 229.132812 192.3125 229.351562 C 192.246094 229.519531 192.085938 229.621094 191.917969 229.621094 Z M 191.917969 229.621094 " fill-opacity="1" fill-rule="nonzero"/></svg>