<svg xmlns="http://www.w3.org/2000/svg" xmlns:xlink="http://www.w3.org/1999/xlink" width="500" zoomAndPan="magnify" viewBox="0 0 375 374.999991" height="500" preserveAspectRatio="xMidYMid meet" version="1.0"><path fill="#000000" d="M 341.445312 238.097656 C 342.363281 238.417969 343.292969 238.683594 344.242188 238.894531 C 345.191406 239.105469 346.148438 239.257812 347.113281 239.355469 C 348.078125 239.453125 349.046875 239.492188 350.019531 239.472656 C 350.988281 239.453125 351.957031 239.378906 352.917969 239.246094 C 353.878906 239.113281 354.828125 238.921875 355.769531 238.679688 C 356.707031 238.433594 357.628906 238.132812 358.535156 237.777344 C 359.4375 237.421875 360.316406 237.015625 361.171875 236.554688 C 362.027344 236.09375 362.851562 235.585938 363.648438 235.03125 C 364.441406 234.472656 365.203125 233.871094 365.925781 233.222656 C 366.648438 232.574219 367.332031 231.886719 367.972656 231.15625 C 368.617188 230.429688 369.210938 229.664062 369.761719 228.867188 C 370.3125 228.066406 370.816406 227.238281 371.269531 226.378906 C 371.722656 225.519531 372.121094 224.636719 372.46875 223.730469 C 372.820312 222.824219 373.113281 221.902344 373.351562 220.960938 C 373.589844 220.019531 373.769531 219.066406 373.894531 218.105469 C 374.023438 217.140625 374.089844 216.175781 374.101562 215.203125 L 374.101562 167.1875 C 374.101562 165.691406 374.042969 164.195312 373.925781 162.703125 C 373.8125 161.210938 373.636719 159.722656 373.410156 158.242188 C 373.179688 156.761719 372.890625 155.292969 372.546875 153.835938 C 372.203125 152.378906 371.804688 150.9375 371.351562 149.507812 C 370.894531 148.082031 370.386719 146.675781 369.824219 145.289062 C 369.261719 143.898438 368.644531 142.535156 367.976562 141.195312 C 367.308594 139.855469 366.589844 138.542969 365.820312 137.257812 C 365.050781 135.972656 364.234375 134.71875 363.367188 133.496094 C 362.5 132.277344 361.589844 131.089844 360.632812 129.9375 C 359.671875 128.785156 358.671875 127.671875 357.628906 126.597656 C 356.585938 125.523438 355.503906 124.492188 354.378906 123.5 C 353.257812 122.507812 352.097656 121.5625 350.902344 120.660156 C 349.707031 119.761719 348.476562 118.90625 347.214844 118.101562 C 345.953125 117.292969 344.660156 116.535156 343.339844 115.828125 C 342.023438 115.121094 340.675781 114.464844 339.304688 113.863281 C 337.933594 113.257812 336.542969 112.710938 335.128906 112.214844 L 33.550781 6.28125 C 32.628906 5.957031 31.691406 5.691406 30.738281 5.480469 C 29.785156 5.269531 28.820312 5.117188 27.847656 5.019531 C 26.878906 4.925781 25.902344 4.886719 24.925781 4.90625 C 23.949219 4.929688 22.976562 5.007812 22.011719 5.144531 C 21.042969 5.28125 20.085938 5.472656 19.144531 5.722656 C 18.199219 5.976562 17.273438 6.28125 16.363281 6.644531 C 15.457031 7.003906 14.574219 7.417969 13.714844 7.882812 C 12.859375 8.351562 12.03125 8.867188 11.234375 9.433594 C 10.4375 10 9.675781 10.609375 8.953125 11.265625 C 8.230469 11.921875 7.546875 12.617188 6.90625 13.355469 C 6.265625 14.09375 5.671875 14.867188 5.125 15.675781 C 4.578125 16.484375 4.078125 17.324219 3.628906 18.191406 C 3.183594 19.058594 2.789062 19.949219 2.445312 20.867188 C 2.105469 21.78125 1.820312 22.714844 1.589844 23.664062 C 1.359375 24.613281 1.183594 25.570312 1.070312 26.542969 C 0.953125 27.511719 0.898438 28.484375 0.898438 29.460938 L 0.898438 93.121094 C 0.886719 94.988281 1.015625 96.84375 1.292969 98.6875 C 1.570312 100.535156 1.988281 102.347656 2.550781 104.125 C 3.109375 105.90625 3.804688 107.632812 4.632812 109.304688 C 5.460938 110.976562 6.414062 112.574219 7.492188 114.09375 C 8.570312 115.617188 9.761719 117.046875 11.0625 118.386719 C 12.363281 119.722656 13.761719 120.953125 15.253906 122.070312 C 16.746094 123.191406 18.316406 124.1875 19.964844 125.0625 C 21.613281 125.933594 23.320312 126.675781 25.082031 127.285156 L 197.332031 187.859375 Z M 341.445312 238.097656 " fill-opacity="1" fill-rule="nonzero"/><path fill="#000000" d="M 0.898438 346.253906 C 0.898438 347.230469 0.960938 348.203125 1.078125 349.171875 C 1.195312 350.140625 1.371094 351.097656 1.601562 352.042969 C 1.835938 352.992188 2.125 353.921875 2.464844 354.835938 C 2.808594 355.746094 3.207031 356.636719 3.65625 357.503906 C 4.105469 358.367188 4.601562 359.203125 5.152344 360.011719 C 5.703125 360.816406 6.296875 361.589844 6.9375 362.324219 C 7.578125 363.058594 8.261719 363.753906 8.984375 364.40625 C 9.707031 365.0625 10.46875 365.671875 11.261719 366.234375 C 12.058594 366.796875 12.886719 367.3125 13.742188 367.777344 C 14.601562 368.242188 15.484375 368.652344 16.390625 369.011719 C 17.296875 369.371094 18.222656 369.675781 19.164062 369.925781 C 20.109375 370.175781 21.0625 370.371094 22.027344 370.503906 C 22.992188 370.640625 23.964844 370.71875 24.941406 370.738281 C 25.914062 370.757812 26.886719 370.71875 27.859375 370.625 C 28.828125 370.527344 29.789062 370.375 30.742188 370.164062 C 31.695312 369.953125 32.632812 369.6875 33.550781 369.363281 L 282.378906 282.019531 C 283.105469 281.742188 283.777344 281.367188 284.386719 280.882812 C 285 280.402344 285.527344 279.84375 285.96875 279.203125 C 286.410156 278.5625 286.746094 277.871094 286.980469 277.125 C 287.210938 276.382812 287.324219 275.621094 287.328125 274.84375 C 287.324219 274.066406 287.210938 273.304688 286.980469 272.5625 C 286.746094 271.820312 286.410156 271.125 285.96875 270.484375 C 285.527344 269.84375 285 269.285156 284.386719 268.804688 C 283.777344 268.324219 283.105469 267.945312 282.378906 267.667969 L 183.265625 232.714844 L 147.378906 220.15625 C 144.03125 218.980469 140.605469 218.09375 137.105469 217.496094 C 133.605469 216.898438 130.082031 216.601562 126.53125 216.601562 C 122.980469 216.601562 119.457031 216.898438 115.957031 217.496094 C 112.457031 218.09375 109.03125 218.980469 105.679688 220.15625 L 25.011719 248.433594 C 23.25 249.042969 21.546875 249.789062 19.902344 250.664062 C 18.257812 251.539062 16.691406 252.539062 15.203125 253.660156 C 13.714844 254.78125 12.320312 256.011719 11.023438 257.347656 C 9.726562 258.6875 8.539062 260.117188 7.464844 261.636719 C 6.390625 263.160156 5.4375 264.757812 4.613281 266.429688 C 3.785156 268.097656 3.09375 269.824219 2.539062 271.601562 C 1.980469 273.378906 1.566406 275.191406 1.289062 277.035156 C 1.015625 278.878906 0.882812 280.730469 0.898438 282.59375 Z M 0.898438 346.253906 " fill-opacity="1" fill-rule="nonzero"/></svg>